<?xml version="1.0" standalone="no"?>
<!DOCTYPE svg PUBLIC "-//W3C//DTD SVG 20010904//EN"
 "http://www.w3.org/TR/2001/REC-SVG-20010904/DTD/svg10.dtd">
<svg version="1.0" xmlns="http://www.w3.org/2000/svg"
 width="696.000000pt" height="696.000000pt" viewBox="0 0 696.000000 696.000000"
 preserveAspectRatio="xMidYMid meet">
<metadata>
Created by potrace 1.14, written by Peter Selinger 2001-2017
</metadata>
<g transform="translate(0.000000,696.000000) scale(0.100000,-0.100000)"
fill="#000000" stroke="none">
<path d="M3492 6551 c-29 -39 -52 -76 -52 -81 0 -6 -4 -10 -8 -10 -11 0 -192
-264 -192 -279 0 -6 -4 -11 -10 -11 -5 0 -10 -5 -10 -11 0 -6 -8 -23 -18 -37
-43 -61 -181 -330 -226 -442 -15 -36 -33 -78 -40 -95 -50 -113 -154 -433 -148
-457 1 -4 -22 -14 -51 -24 -412 -134 -845 -435 -1122 -780 -16 -20 -40 -49
-52 -65 -13 -15 -23 -30 -23 -34 0 -3 -6 -13 -12 -20 -66 -73 -195 -302 -263
-465 -27 -62 -83 -219 -91 -250 -2 -8 -12 -49 -23 -90 -18 -68 -30 -120 -36
-160 -7 -47 -18 -118 -21 -135 -16 -85 -22 -380 -10 -500 13 -129 17 -160 22
-178 4 -13 -34 -56 -138 -160 -147 -146 -235 -241 -309 -337 -24 -30 -46 -57
-49 -60 -11 -9 -175 -244 -216 -310 -99 -157 -121 -196 -234 -426 -55 -111
-100 -207 -100 -213 0 -6 17 -11 39 -11 22 0 43 -5 46 -10 4 -6 10 -8 15 -5 5
3 42 -1 82 -9 40 -9 89 -18 108 -21 19 -3 62 -10 95 -16 66 -12 70 -13 170
-28 164 -26 451 -33 620 -16 44 4 91 9 105 10 52 5 136 16 150 20 8 2 35 7 60
10 25 3 53 8 63 11 11 4 29 7 40 9 40 5 81 15 192 44 110 29 125 29 157 -2 7
-7 29 -24 48 -37 19 -13 37 -27 40 -31 3 -4 55 -38 115 -76 158 -100 266 -153
480 -238 11 -4 25 -9 30 -11 6 -1 45 -14 87 -28 147 -47 342 -86 523 -102 167
-15 393 -7 590 21 77 11 90 13 90 15 0 1 9 3 20 4 51 7 247 61 346 96 121 43
300 124 338 152 13 10 27 18 31 18 5 0 37 18 71 40 35 22 71 43 79 47 8 4 17
9 20 13 3 3 37 28 75 55 39 27 81 59 94 71 26 24 11 26 206 -25 66 -17 132
-34 148 -36 56 -10 83 -15 107 -20 36 -8 68 -13 130 -20 30 -4 63 -9 74 -11
89 -16 488 -24 606 -11 141 15 232 20 392 21 93 1 168 2 168 3 0 1 -4 12 -9
25 -6 13 -35 88 -67 168 -66 170 -83 209 -135 313 -21 43 -39 84 -39 92 0 8
-4 15 -8 15 -5 0 -19 21 -32 48 -45 91 -192 320 -264 413 -12 15 -30 39 -41
54 -11 16 -25 33 -30 39 -6 6 -30 36 -55 66 -65 79 -95 112 -192 213 -75 76
-87 93 -83 116 3 14 8 42 11 61 3 19 7 46 9 60 23 133 23 464 0 605 -2 17 -7
48 -11 70 -10 68 -15 96 -28 155 -12 53 -18 80 -18 87 -1 5 -9 31 -18 58 -9
28 -18 55 -20 60 -1 6 -6 19 -10 30 -4 11 -16 46 -26 78 -10 31 -22 57 -26 57
-5 0 -7 4 -4 8 4 7 -117 260 -157 327 -31 53 -147 222 -166 242 -12 12 -21 25
-21 28 0 4 -6 12 -12 19 -7 8 -42 46 -78 86 -127 142 -283 281 -439 390 -150
105 -394 229 -595 301 -38 14 -38 14 -91 164 -29 83 -58 164 -66 180 -7 17
-13 32 -14 35 -15 45 -90 210 -150 330 -117 235 -193 366 -361 620 -60 91
-111 171 -114 179 -4 8 -25 -13 -58 -58z m69 -668 c12 -27 26 -50 29 -53 4 -3
48 -88 98 -190 100 -203 185 -406 177 -420 -3 -5 -15 -7 -28 -4 -95 21 -515
22 -620 1 -7 -1 -11 3 -10 8 3 18 64 189 78 220 7 17 28 64 45 105 61 143 186
379 202 380 3 0 16 -21 29 -47z m313 -1052 c66 -12 121 -22 122 -24 3 -3 43
-208 48 -252 26 -195 26 -403 0 -690 -1 -16 -3 -31 -3 -32 -3 -9 -6 -23 -12
-63 -5 -25 -10 -56 -13 -70 -3 -14 -7 -38 -9 -55 -6 -37 -41 -176 -68 -268
l-20 -68 -62 6 c-196 19 -626 19 -657 0 -6 -4 -17 9 -25 28 -13 32 -50 166
-60 218 -3 13 -7 35 -10 49 -8 39 -15 72 -20 105 -3 17 -8 42 -11 57 -3 15 -7
47 -9 70 -2 24 -7 61 -10 83 -3 22 -8 97 -10 167 -3 70 -5 131 -6 135 -1 4 -1
10 0 13 1 3 3 62 5 133 3 70 7 140 10 155 3 15 8 52 11 83 3 31 8 67 10 80 3
13 7 35 10 49 12 65 17 80 28 81 27 1 84 9 106 14 13 4 56 9 95 12 39 3 73 7
74 8 2 2 86 2 185 0 126 -2 219 -10 301 -24z m-1189 -213 c-3 -35 -9 -94 -12
-133 -9 -100 -9 -415 0 -515 19 -208 26 -256 59 -415 11 -55 22 -107 23 -115
2 -8 4 -15 5 -15 1 0 3 -7 5 -15 1 -8 10 -44 19 -79 19 -73 16 -78 -39 -85
-38 -5 -261 -67 -360 -101 -199 -67 -477 -191 -615 -273 -19 -12 -48 -28 -65
-37 -16 -8 -77 -46 -135 -84 -58 -37 -108 -67 -111 -65 -7 4 -3 305 4 339 3
11 8 45 12 75 35 277 160 598 329 845 33 50 63 92 66 95 3 3 27 32 54 65 79
96 291 298 345 329 9 5 18 12 21 16 8 11 159 110 178 117 9 4 19 10 22 14 6 8
181 98 193 98 4 1 5 -27 2 -61z m2030 -124 c128 -86 179 -128 295 -244 106
-106 133 -137 210 -241 114 -154 213 -339 282 -529 19 -51 25 -71 49 -160 16
-62 38 -174 44 -225 3 -27 8 -63 11 -80 9 -44 12 -312 5 -347 l-6 -29 -55 41
c-209 157 -630 375 -880 457 -25 8 -52 17 -60 20 -8 3 -19 7 -25 8 -5 1 -31
10 -57 18 -26 9 -57 19 -70 21 -13 3 -54 13 -91 22 -80 21 -77 2 -28 189 18
66 34 135 37 155 3 19 7 42 9 50 3 8 7 33 10 55 4 22 8 50 10 61 2 12 6 48 10
80 4 33 9 70 11 84 20 127 20 508 -1 650 -11 74 -14 104 -9 111 6 11 173 -82
299 -167z m-1015 -1543 c69 -2 76 -10 47 -62 -13 -24 -40 -73 -59 -109 -20
-36 -58 -103 -86 -148 l-51 -84 -44 69 c-65 100 -177 306 -177 325 0 12 127
15 370 9z m-759 -72 c5 -8 25 -50 45 -94 20 -44 63 -129 96 -190 59 -107 85
-149 175 -286 23 -36 43 -70 43 -76 0 -13 -193 -209 -279 -283 -35 -30 -69
-60 -75 -66 -51 -49 -332 -242 -441 -304 -48 -27 -238 -124 -245 -125 -3 -1
-27 -11 -55 -24 -27 -12 -74 -32 -103 -43 l-54 -20 -41 44 c-23 24 -60 66 -82
93 -21 28 -42 52 -45 55 -3 3 -22 28 -41 55 -18 28 -36 52 -39 55 -11 10 -75
118 -112 189 -49 90 -94 197 -133 313 -29 87 -29 88 -10 103 50 39 232 162
248 168 9 4 17 11 17 17 0 5 4 10 9 10 5 0 42 19 83 43 99 59 254 137 363 182
50 20 104 43 120 50 33 14 254 88 270 90 6 1 12 3 15 4 3 1 14 4 25 7 11 2 63
15 115 28 104 25 120 26 131 5z m1344 -20 c44 -11 94 -24 110 -29 17 -6 57
-19 90 -29 59 -19 172 -61 229 -84 87 -36 335 -163 431 -222 119 -73 300 -201
353 -250 l33 -31 -27 -74 c-72 -205 -172 -390 -299 -558 -68 -90 -176 -212
-187 -212 -6 0 -76 30 -158 67 -124 56 -290 145 -329 175 -13 10 -29 18 -37
18 -7 0 -14 3 -16 8 -3 8 -95 72 -104 72 -2 0 -28 18 -57 40 -29 22 -59 46
-68 53 -137 103 -370 320 -438 408 l-21 27 50 70 c28 39 58 85 67 101 10 16
43 72 74 123 30 52 82 148 114 214 68 139 73 147 94 138 9 -3 52 -15 96 -25z
m-3025 -977 c41 -97 55 -127 126 -259 47 -86 196 -304 238 -345 9 -10 15 -22
12 -27 -5 -8 -50 -20 -103 -26 -12 -2 -36 -6 -55 -10 -18 -4 -44 -9 -58 -10
-14 -2 -38 -5 -55 -8 -110 -20 -517 -29 -620 -14 -27 4 -65 10 -84 12 -45 6
-47 9 -22 43 12 17 21 35 21 41 0 6 5 11 10 11 6 0 10 5 10 11 0 19 197 305
266 386 11 12 35 41 54 64 92 111 204 229 213 226 5 -1 26 -44 47 -95z m2389
-49 c222 -224 482 -428 726 -569 28 -15 52 -32 53 -36 2 -4 12 -8 22 -8 10 0
21 -4 24 -8 3 -5 53 -33 112 -61 l106 -53 -33 -21 c-92 -58 -308 -167 -330
-167 -10 0 -19 -3 -21 -7 -6 -15 -257 -92 -346 -107 -55 -10 -86 -16 -112 -21
-136 -28 -469 -25 -650 5 -105 18 -115 20 -148 29 -18 5 -36 10 -40 11 -19 3
-59 12 -72 17 -8 4 -17 7 -20 8 -120 36 -189 64 -310 122 -160 78 -256 143
-210 143 5 0 34 11 65 25 30 13 58 24 62 24 3 -1 9 3 12 8 5 8 103 62 158 88
13 5 23 13 23 18 0 4 5 7 11 7 23 0 372 239 445 305 6 6 38 33 70 60 32 28
111 102 174 166 63 64 119 117 124 117 5 1 53 -42 105 -95z m2291 -23 c19 -24
43 -52 53 -62 9 -10 17 -20 17 -22 0 -3 28 -42 63 -88 96 -128 288 -450 275
-463 -2 -2 -34 -6 -72 -10 -38 -3 -72 -8 -77 -10 -4 -3 -10 -1 -14 4 -3 6 -15
7 -28 2 -12 -5 -31 -7 -42 -5 -11 2 -69 6 -130 9 -150 8 -209 14 -320 32 -22
3 -49 7 -61 8 -11 1 -26 5 -33 9 -7 4 -15 6 -17 3 -3 -3 -25 1 -50 9 -24 7
-44 11 -44 8 0 -3 -9 0 -20 6 -19 10 -19 12 -5 27 46 45 175 227 233 328 32
57 113 220 141 284 l23 53 36 -39 c20 -22 53 -59 72 -83z"/>
</g>
</svg>
